<svg width="86" height="86" viewBox="0 0 86 86" fill="none" xmlns="http://www.w3.org/2000/svg">
<path d="M65.9586 6.13562L19.9411 6.13562C15.7053 6.13562 12.2715 9.56941 12.2715 13.8052L12.2715 72.0941C12.2715 76.3299 15.7053 79.7637 19.9411 79.7637H65.9586C70.1944 79.7637 73.6282 76.3299 73.6282 72.0941V13.8052C73.6282 9.56941 70.1944 6.13562 65.9586 6.13562Z" stroke="#004568" stroke-width="1.3"/>
<path d="M60.7429 18.407H25.156C23.1228 18.407 21.4746 20.0552 21.4746 22.0884V36.2004C21.4746 38.2336 23.1228 39.8818 25.156 39.8818H60.7429C62.7761 39.8818 64.4243 38.2336 64.4243 36.2004V22.0884C64.4243 20.0552 62.7761 18.407 60.7429 18.407Z" stroke="#004568" stroke-width="1.1"/>
<path d="M21.4746 52.1532H64.4243" stroke="#004568" stroke-linecap="round"/>
<path d="M21.4746 61.3568H49.0851" stroke="#004568" stroke-linecap="round"/>
<path d="M21.4746 70.5603H39.8816" stroke="#004568" stroke-linecap="round"/>
</svg>
