<svg width="100" height="100" viewBox="0 0 100 100" fill="none" xmlns="http://www.w3.org/2000/svg">
<path d="M62.3687 7.12781H37.4214C32.5007 7.12781 28.5117 11.1168 28.5117 16.0375V83.7514C28.5117 88.6721 32.5007 92.6612 37.4214 92.6612H62.3687C67.2894 92.6612 71.2784 88.6721 71.2784 83.7514V16.0375C71.2784 11.1168 67.2894 7.12781 62.3687 7.12781Z" stroke="#004568" stroke-width="1.3"/>
<path d="M39.2031 21.3833H60.5865" stroke="#004568" stroke-width="1.1" stroke-linecap="round"/>
<path d="M49.8939 82.6822C52.2558 82.6822 54.1705 80.7675 54.1705 78.4056C54.1705 76.0436 52.2558 74.1289 49.8939 74.1289C47.5319 74.1289 45.6172 76.0436 45.6172 78.4056C45.6172 80.7675 47.5319 82.6822 49.8939 82.6822Z" fill="#004568"/>
</svg>
