<svg width="105" height="105" viewBox="0 0 105 105" fill="none" xmlns="http://www.w3.org/2000/svg">
<path d="M87.5004 26.0638H16.7558C11.6148 26.0638 7.44727 30.2314 7.44727 35.3723V68.8829C7.44727 74.0239 11.6148 78.1914 16.7558 78.1914H87.5004C92.6413 78.1914 96.8089 74.0239 96.8089 68.8829V35.3723C96.8089 30.2314 92.6413 26.0638 87.5004 26.0638Z" stroke="#004568" stroke-width="1.3"/>
<path d="M31.648 55.851C35.7607 55.851 39.0948 52.517 39.0948 48.4042C39.0948 44.2914 35.7607 40.9574 31.648 40.9574C27.5352 40.9574 24.2012 44.2914 24.2012 48.4042C24.2012 52.517 27.5352 55.851 31.648 55.851Z" stroke="#004568" stroke-width="1.1"/>
<path d="M48.4043 63.2978L61.4362 48.4042L74.4681 63.2978" stroke="#004568" stroke-width="1.1" stroke-linecap="round" stroke-linejoin="round"/>
<path d="M67.0215 57.7126L74.4683 63.2977" stroke="#004568" stroke-width="1.1" stroke-linecap="round"/>
</svg>
