<svg width="129" height="100" viewBox="0 0 129 100" fill="none" xmlns="http://www.w3.org/2000/svg">
<path d="M64.5007 17.8569C72.2965 17.8569 79.9173 20.161 86.3994 24.4778C92.8814 28.7945 97.9335 34.9301 100.917 42.1087C103.9 49.2872 104.681 57.1862 103.16 64.8069C101.639 72.4276 97.885 79.4276 92.3724 84.9218C86.8599 90.4161 79.8365 94.1576 72.1905 95.6735C64.5444 97.1893 56.619 96.4114 49.4165 93.4379C42.2141 90.4645 36.058 85.4291 31.7269 78.9686C27.3957 72.5081 25.084 64.9126 25.084 57.1426" stroke="#7AAEC8" stroke-width="1.3" stroke-linecap="round"/>
<path d="M17.916 46.4287L25.0827 57.143L35.8327 50.0001" stroke="#7AAEC8" stroke-width="1.3" stroke-linecap="round" stroke-linejoin="round"/>
<path d="M39.416 75.0001L53.7493 60.7144L68.0827 67.8573L82.416 46.4287" stroke="#7AAEC8" stroke-width="1.2" stroke-linecap="round" stroke-linejoin="round"/>
<path opacity="0.7" d="M82.4167 50.8929C84.8904 50.8929 86.8958 48.8942 86.8958 46.4286C86.8958 43.9631 84.8904 41.9644 82.4167 41.9644C79.9429 41.9644 77.9375 43.9631 77.9375 46.4286C77.9375 48.8942 79.9429 50.8929 82.4167 50.8929Z" fill="#7AAEC8"/>
</svg>
