<svg width="129" height="100" viewBox="0 0 129 100" fill="none" xmlns="http://www.w3.org/2000/svg">
<path d="M73.4577 7.14307H12.541C9.57248 7.14307 7.16602 9.54154 7.16602 12.5002V51.7859C7.16602 54.7446 9.57248 57.1431 12.541 57.1431H73.4577C76.4262 57.1431 78.8327 54.7446 78.8327 51.7859V12.5002C78.8327 9.54154 76.4262 7.14307 73.4577 7.14307Z" stroke="#7AAEC8" stroke-width="1.2"/>
<path d="M7.16602 50H78.8327" stroke="#7AAEC8" stroke-width="1.2"/>
<path d="M39.416 57.1431V67.8574" stroke="#7AAEC8" stroke-width="1.2"/>
<path d="M25.084 67.8569H53.7507" stroke="#7AAEC8" stroke-width="1.2"/>
<path d="M16.125 23.2144H35.8333" stroke="#7AAEC8" stroke-linecap="round"/>
<path d="M16.125 32.1431H46.5833" stroke="#7AAEC8" stroke-linecap="round"/>
<path d="M16.125 41.0713H30.4583" stroke="#7AAEC8" stroke-linecap="round"/>
<path d="M89.584 67.8569L111.084 17.8569L118.251 24.9998L96.7507 74.9998L89.584 67.8569Z" stroke="#7AAEC8" stroke-width="1.2" stroke-linejoin="round"/>
<path d="M103.916 25L111.083 32.1429" stroke="#7AAEC8"/>
<path d="M89.5833 67.8569L86 78.5712" stroke="#7AAEC8" stroke-linecap="round"/>
</svg>
