<svg width="124" height="97" viewBox="0 0 124 97" fill="none" xmlns="http://www.w3.org/2000/svg">
<path d="M33.0966 37.7222C39.7547 37.7222 45.1521 32.2936 45.1521 25.5972C45.1521 18.9007 39.7547 13.4722 33.0966 13.4722C26.4385 13.4722 21.041 18.9007 21.041 25.5972C21.041 32.2936 26.4385 37.7222 33.0966 37.7222Z" stroke="#7AAEC8" stroke-width="1.2"/>
<path d="M10.334 76.214C10.334 62.3569 20.6673 45.8052 34.4451 45.8052C48.2229 45.8052 59.9798 62.3569 59.9798 76.214" stroke="#7AAEC8" stroke-width="1.2" stroke-linecap="round"/>
<path d="M106.779 10.3931H72.3342C68.5296 10.3931 65.4453 13.4951 65.4453 17.3216V38.1074C65.4453 41.9339 68.5296 45.0359 72.3342 45.0359H106.779C110.583 45.0359 113.668 41.9339 113.668 38.1074V17.3216C113.668 13.4951 110.583 10.3931 106.779 10.3931Z" stroke="#7AAEC8" stroke-width="1.2"/>
<path d="M72.3342 45.0356L65.4453 55.4285L82.6675 45.0356" stroke="#7AAEC8" stroke-linejoin="round"/>
<path d="M75.7773 24.25L80.944 31.1786" stroke="#7AAEC8" stroke-width="1.2" stroke-linecap="round"/>
<path d="M80.9453 31.1784L99.8898 17.3213" stroke="#7AAEC8" stroke-width="1.2" stroke-linecap="round"/>
</svg>
