<svg width="143" height="111" viewBox="0 0 143 111" fill="none" xmlns="http://www.w3.org/2000/svg">
<path d="M73.4865 11.8931H9.93099C6.64029 11.8931 3.97266 14.5554 3.97266 17.8395V57.4823C3.97266 60.7665 6.64029 63.4288 9.93099 63.4288H73.4865C76.7772 63.4288 79.4449 60.7665 79.4449 57.4823V17.8395C79.4449 14.5554 76.7772 11.8931 73.4865 11.8931Z" stroke="#7AAEC8" stroke-width="1.2"/>
<path d="M3.97266 25.7681H79.4449" stroke="#7AAEC8"/>
<path d="M13.9029 21.2088C15.2191 21.2088 16.2862 20.1439 16.2862 18.8302C16.2862 17.5166 15.2191 16.4517 13.9029 16.4517C12.5866 16.4517 11.5195 17.5166 11.5195 18.8302C11.5195 20.1439 12.5866 21.2088 13.9029 21.2088Z" fill="#7AAEC8"/>
<path d="M23.8326 21.2088C25.1488 21.2088 26.2159 20.1439 26.2159 18.8302C26.2159 17.5166 25.1488 16.4517 23.8326 16.4517C22.5163 16.4517 21.4492 17.5166 21.4492 18.8302C21.4492 20.1439 22.5163 21.2088 23.8326 21.2088Z" fill="#7AAEC8"/>
<path d="M13.9023 37.6606H43.694" stroke="#7AAEC8" stroke-linecap="round"/>
<path d="M13.9023 45.5894H59.5829" stroke="#7AAEC8" stroke-linecap="round"/>
<path d="M13.9023 53.5181H35.7496" stroke="#7AAEC8" stroke-linecap="round"/>
<path d="M129.098 15.8569H101.292C98.0016 15.8569 95.334 18.5192 95.334 21.8034V77.3034C95.334 80.5875 98.0016 83.2498 101.292 83.2498H129.098C132.389 83.2498 135.056 80.5875 135.056 77.3034V21.8034C135.056 18.5192 132.389 15.8569 129.098 15.8569Z" stroke="#7AAEC8" stroke-width="1.2"/>
<path d="M95.334 71.3569H135.056" stroke="#7AAEC8"/>
<path opacity="0.5" d="M115.194 84.2409C116.839 84.2409 118.173 82.9097 118.173 81.2676C118.173 79.6256 116.839 78.2944 115.194 78.2944C113.549 78.2944 112.215 79.6256 112.215 81.2676C112.215 82.9097 113.549 84.2409 115.194 84.2409Z" fill="#7AAEC8"/>
<path d="M105.264 35.6787H125.125" stroke="#7AAEC8" stroke-linecap="round"/>
<path d="M105.264 43.6069H125.125" stroke="#7AAEC8" stroke-linecap="round"/>
<path d="M105.264 51.5356H119.166" stroke="#7AAEC8" stroke-linecap="round"/>
<path d="M83.416 43.6069H91.3605" stroke="#7AAEC8" stroke-linecap="round"/>
<path d="M87.3887 39.6431L93.347 43.6074L87.3887 47.5716" stroke="#7AAEC8" stroke-linecap="round" stroke-linejoin="round"/>
</svg>
